<mxfile host="app.diagrams.net" modified="2022-08-24T14:05:54.060Z" agent="5.0 (Windows NT 10.0; Win64; x64) AppleWebKit/537.36 (KHTML, like Gecko) Chrome/104.0.5112.102 Safari/537.36 Edg/104.0.1293.63" etag="DnWNuB4SfCXeqqjHH1pk" version="20.2.6" type="github">
  <diagram id="Cr7j9bII9cDx7bVzwEN_" name="第 1 页">
    <mxGraphModel dx="1718" dy="935" grid="1" gridSize="10" guides="1" tooltips="1" connect="1" arrows="1" fold="1" page="1" pageScale="1" pageWidth="827" pageHeight="1169" math="0" shadow="0">
      <root>
        <mxCell id="0" />
        <mxCell id="1" parent="0" />
        <object label="" id="EFlkV4-VRsSRIpyNFtT4-44">
          <mxCell style="group" vertex="1" connectable="0" parent="1">
            <mxGeometry x="60" y="100" width="790" height="695" as="geometry" />
          </mxCell>
        </object>
        <object label="" placeholders="null" id="EFlkV4-VRsSRIpyNFtT4-1">
          <mxCell style="rounded=0;whiteSpace=wrap;html=1;container=0;" vertex="1" parent="EFlkV4-VRsSRIpyNFtT4-44">
            <mxGeometry y="100" width="210" height="520" as="geometry" />
          </mxCell>
        </object>
        <object label="GCROOT" placeholders="null" id="EFlkV4-VRsSRIpyNFtT4-2">
          <mxCell style="text;html=1;strokeColor=none;fillColor=none;align=center;verticalAlign=middle;whiteSpace=wrap;rounded=0;container=0;" vertex="1" parent="EFlkV4-VRsSRIpyNFtT4-44">
            <mxGeometry x="50" y="30" width="120" height="40" as="geometry" />
          </mxCell>
        </object>
        <object label="" placeholders="null" id="EFlkV4-VRsSRIpyNFtT4-3">
          <mxCell style="endArrow=none;html=1;rounded=0;exitX=0;exitY=0.25;exitDx=0;exitDy=0;entryX=1;entryY=0.25;entryDx=0;entryDy=0;" edge="1" parent="EFlkV4-VRsSRIpyNFtT4-44" source="EFlkV4-VRsSRIpyNFtT4-1" target="EFlkV4-VRsSRIpyNFtT4-1">
            <mxGeometry width="50" height="50" relative="1" as="geometry">
              <mxPoint x="330" y="500" as="sourcePoint" />
              <mxPoint x="380" y="450" as="targetPoint" />
            </mxGeometry>
          </mxCell>
        </object>
        <object label="" placeholders="null" id="EFlkV4-VRsSRIpyNFtT4-9">
          <mxCell style="endArrow=none;html=1;rounded=0;exitX=0;exitY=0.5;exitDx=0;exitDy=0;entryX=1;entryY=0.5;entryDx=0;entryDy=0;" edge="1" parent="EFlkV4-VRsSRIpyNFtT4-44" source="EFlkV4-VRsSRIpyNFtT4-1" target="EFlkV4-VRsSRIpyNFtT4-1">
            <mxGeometry width="50" height="50" relative="1" as="geometry">
              <mxPoint x="330" y="500" as="sourcePoint" />
              <mxPoint x="380" y="450" as="targetPoint" />
            </mxGeometry>
          </mxCell>
        </object>
        <object label="" placeholders="null" id="EFlkV4-VRsSRIpyNFtT4-12">
          <mxCell style="endArrow=none;html=1;rounded=0;exitX=0;exitY=0.75;exitDx=0;exitDy=0;entryX=1;entryY=0.75;entryDx=0;entryDy=0;" edge="1" parent="EFlkV4-VRsSRIpyNFtT4-44" source="EFlkV4-VRsSRIpyNFtT4-1" target="EFlkV4-VRsSRIpyNFtT4-1">
            <mxGeometry width="50" height="50" relative="1" as="geometry">
              <mxPoint x="330" y="500" as="sourcePoint" />
              <mxPoint x="380" y="450" as="targetPoint" />
            </mxGeometry>
          </mxCell>
        </object>
        <object label="Object1" placeholders="null" id="EFlkV4-VRsSRIpyNFtT4-13">
          <mxCell style="ellipse;whiteSpace=wrap;html=1;aspect=fixed;fillColor=#B3B3B3;container=0;" vertex="1" parent="EFlkV4-VRsSRIpyNFtT4-44">
            <mxGeometry x="300" y="130" width="80" height="80" as="geometry" />
          </mxCell>
        </object>
        <object label="Object2" placeholders="null" id="EFlkV4-VRsSRIpyNFtT4-14">
          <mxCell style="ellipse;whiteSpace=wrap;html=1;aspect=fixed;container=0;" vertex="1" parent="EFlkV4-VRsSRIpyNFtT4-44">
            <mxGeometry x="440" y="130" width="80" height="80" as="geometry" />
          </mxCell>
        </object>
        <object label="Object3" placeholders="null" id="EFlkV4-VRsSRIpyNFtT4-15">
          <mxCell style="ellipse;whiteSpace=wrap;html=1;aspect=fixed;container=0;" vertex="1" parent="EFlkV4-VRsSRIpyNFtT4-44">
            <mxGeometry x="570" y="130" width="80" height="80" as="geometry" />
          </mxCell>
        </object>
        <object label="Object4" placeholders="null" id="EFlkV4-VRsSRIpyNFtT4-16">
          <mxCell style="ellipse;whiteSpace=wrap;html=1;aspect=fixed;container=0;" vertex="1" parent="EFlkV4-VRsSRIpyNFtT4-44">
            <mxGeometry x="700" y="130" width="80" height="80" as="geometry" />
          </mxCell>
        </object>
        <object label="" placeholders="null" id="EFlkV4-VRsSRIpyNFtT4-17">
          <mxCell style="endArrow=classic;html=1;rounded=0;exitX=1;exitY=0.137;exitDx=0;exitDy=0;exitPerimeter=0;entryX=0;entryY=0.5;entryDx=0;entryDy=0;" edge="1" parent="EFlkV4-VRsSRIpyNFtT4-44" source="EFlkV4-VRsSRIpyNFtT4-1" target="EFlkV4-VRsSRIpyNFtT4-13">
            <mxGeometry width="50" height="50" relative="1" as="geometry">
              <mxPoint x="280" y="300" as="sourcePoint" />
              <mxPoint x="330" y="250" as="targetPoint" />
            </mxGeometry>
          </mxCell>
        </object>
        <object label="" placeholders="null" id="EFlkV4-VRsSRIpyNFtT4-18">
          <mxCell style="endArrow=classic;html=1;rounded=0;entryX=0;entryY=0.5;entryDx=0;entryDy=0;" edge="1" parent="EFlkV4-VRsSRIpyNFtT4-44" target="EFlkV4-VRsSRIpyNFtT4-14">
            <mxGeometry width="50" height="50" relative="1" as="geometry">
              <mxPoint x="380" y="170" as="sourcePoint" />
              <mxPoint x="330" y="250" as="targetPoint" />
            </mxGeometry>
          </mxCell>
        </object>
        <object label="" placeholders="null" id="EFlkV4-VRsSRIpyNFtT4-19">
          <mxCell style="endArrow=classic;html=1;rounded=0;exitX=1;exitY=0.5;exitDx=0;exitDy=0;entryX=0;entryY=0.5;entryDx=0;entryDy=0;" edge="1" parent="EFlkV4-VRsSRIpyNFtT4-44" source="EFlkV4-VRsSRIpyNFtT4-14" target="EFlkV4-VRsSRIpyNFtT4-15">
            <mxGeometry width="50" height="50" relative="1" as="geometry">
              <mxPoint x="380" y="170" as="sourcePoint" />
              <mxPoint x="330" y="250" as="targetPoint" />
            </mxGeometry>
          </mxCell>
        </object>
        <object label="" placeholders="null" id="EFlkV4-VRsSRIpyNFtT4-20">
          <mxCell style="endArrow=classic;html=1;rounded=0;entryX=1;entryY=0.5;entryDx=0;entryDy=0;exitX=0;exitY=0.5;exitDx=0;exitDy=0;" edge="1" parent="EFlkV4-VRsSRIpyNFtT4-44" source="EFlkV4-VRsSRIpyNFtT4-16" target="EFlkV4-VRsSRIpyNFtT4-15">
            <mxGeometry width="50" height="50" relative="1" as="geometry">
              <mxPoint x="690" y="210" as="sourcePoint" />
              <mxPoint x="740" y="160" as="targetPoint" />
            </mxGeometry>
          </mxCell>
        </object>
        <object label="Object5" placeholders="null" id="EFlkV4-VRsSRIpyNFtT4-21">
          <mxCell style="ellipse;whiteSpace=wrap;html=1;aspect=fixed;container=0;" vertex="1" parent="EFlkV4-VRsSRIpyNFtT4-44">
            <mxGeometry x="440" y="250" width="80" height="80" as="geometry" />
          </mxCell>
        </object>
        <object label="" placeholders="null" id="EFlkV4-VRsSRIpyNFtT4-22">
          <mxCell style="endArrow=classic;html=1;rounded=0;exitX=0.5;exitY=1;exitDx=0;exitDy=0;entryX=0.5;entryY=0;entryDx=0;entryDy=0;" edge="1" parent="EFlkV4-VRsSRIpyNFtT4-44" source="EFlkV4-VRsSRIpyNFtT4-14" target="EFlkV4-VRsSRIpyNFtT4-21">
            <mxGeometry width="50" height="50" relative="1" as="geometry">
              <mxPoint x="380" y="170" as="sourcePoint" />
              <mxPoint x="330" y="250" as="targetPoint" />
            </mxGeometry>
          </mxCell>
        </object>
        <object label="reference1" placeholders="null" id="EFlkV4-VRsSRIpyNFtT4-23">
          <mxCell style="text;html=1;strokeColor=none;fillColor=none;align=center;verticalAlign=middle;whiteSpace=wrap;rounded=0;container=0;" vertex="1" parent="EFlkV4-VRsSRIpyNFtT4-44">
            <mxGeometry x="70" y="155" width="60" height="30" as="geometry" />
          </mxCell>
        </object>
        <object label="reference2" placeholders="null" id="EFlkV4-VRsSRIpyNFtT4-24">
          <mxCell style="text;html=1;strokeColor=none;fillColor=none;align=center;verticalAlign=middle;whiteSpace=wrap;rounded=0;container=0;" vertex="1" parent="EFlkV4-VRsSRIpyNFtT4-44">
            <mxGeometry x="70" y="275" width="60" height="30" as="geometry" />
          </mxCell>
        </object>
        <object label="reference3" placeholders="null" id="EFlkV4-VRsSRIpyNFtT4-25">
          <mxCell style="text;html=1;strokeColor=none;fillColor=none;align=center;verticalAlign=middle;whiteSpace=wrap;rounded=0;container=0;" vertex="1" parent="EFlkV4-VRsSRIpyNFtT4-44">
            <mxGeometry x="70" y="410" width="60" height="30" as="geometry" />
          </mxCell>
        </object>
        <object label="reference4" placeholders="null" id="EFlkV4-VRsSRIpyNFtT4-26">
          <mxCell style="text;html=1;strokeColor=none;fillColor=none;align=center;verticalAlign=middle;whiteSpace=wrap;rounded=0;container=0;" vertex="1" parent="EFlkV4-VRsSRIpyNFtT4-44">
            <mxGeometry x="70" y="530" width="60" height="30" as="geometry" />
          </mxCell>
        </object>
        <object label="Object6" placeholders="null" id="EFlkV4-VRsSRIpyNFtT4-27">
          <mxCell style="ellipse;whiteSpace=wrap;html=1;aspect=fixed;container=0;" vertex="1" parent="EFlkV4-VRsSRIpyNFtT4-44">
            <mxGeometry x="570" width="80" height="80" as="geometry" />
          </mxCell>
        </object>
        <object label="" placeholders="null" id="EFlkV4-VRsSRIpyNFtT4-28">
          <mxCell style="endArrow=classic;html=1;rounded=0;exitX=0.5;exitY=1;exitDx=0;exitDy=0;entryX=0.5;entryY=0;entryDx=0;entryDy=0;" edge="1" parent="EFlkV4-VRsSRIpyNFtT4-44" source="EFlkV4-VRsSRIpyNFtT4-27" target="EFlkV4-VRsSRIpyNFtT4-15">
            <mxGeometry width="50" height="50" relative="1" as="geometry">
              <mxPoint x="380" y="170" as="sourcePoint" />
              <mxPoint x="330" y="250" as="targetPoint" />
            </mxGeometry>
          </mxCell>
        </object>
        <object label="Object7" placeholders="null" id="EFlkV4-VRsSRIpyNFtT4-29">
          <mxCell style="ellipse;whiteSpace=wrap;html=1;aspect=fixed;fillColor=#B3B3B3;container=0;" vertex="1" parent="EFlkV4-VRsSRIpyNFtT4-44">
            <mxGeometry x="310" y="495" width="80" height="80" as="geometry" />
          </mxCell>
        </object>
        <object label="Object8" placeholders="null" id="EFlkV4-VRsSRIpyNFtT4-30">
          <mxCell style="ellipse;whiteSpace=wrap;html=1;aspect=fixed;container=0;" vertex="1" parent="EFlkV4-VRsSRIpyNFtT4-44">
            <mxGeometry x="450" y="495" width="80" height="80" as="geometry" />
          </mxCell>
        </object>
        <object label="Object10" placeholders="null" id="EFlkV4-VRsSRIpyNFtT4-31">
          <mxCell style="ellipse;whiteSpace=wrap;html=1;aspect=fixed;container=0;" vertex="1" parent="EFlkV4-VRsSRIpyNFtT4-44">
            <mxGeometry x="580" y="495" width="80" height="80" as="geometry" />
          </mxCell>
        </object>
        <object label="Object11" placeholders="null" id="EFlkV4-VRsSRIpyNFtT4-32">
          <mxCell style="ellipse;whiteSpace=wrap;html=1;aspect=fixed;container=0;" vertex="1" parent="EFlkV4-VRsSRIpyNFtT4-44">
            <mxGeometry x="710" y="495" width="80" height="80" as="geometry" />
          </mxCell>
        </object>
        <object label="" placeholders="null" id="EFlkV4-VRsSRIpyNFtT4-33">
          <mxCell style="endArrow=classic;html=1;rounded=0;entryX=0;entryY=0.5;entryDx=0;entryDy=0;" edge="1" target="EFlkV4-VRsSRIpyNFtT4-30" parent="EFlkV4-VRsSRIpyNFtT4-44">
            <mxGeometry width="50" height="50" relative="1" as="geometry">
              <mxPoint x="390.0000000000002" y="535" as="sourcePoint" />
              <mxPoint x="340" y="615" as="targetPoint" />
            </mxGeometry>
          </mxCell>
        </object>
        <object label="" placeholders="null" id="EFlkV4-VRsSRIpyNFtT4-34">
          <mxCell style="endArrow=classic;html=1;rounded=0;exitX=1;exitY=0.5;exitDx=0;exitDy=0;entryX=0;entryY=0.5;entryDx=0;entryDy=0;" edge="1" source="EFlkV4-VRsSRIpyNFtT4-30" target="EFlkV4-VRsSRIpyNFtT4-31" parent="EFlkV4-VRsSRIpyNFtT4-44">
            <mxGeometry width="50" height="50" relative="1" as="geometry">
              <mxPoint x="390" y="535" as="sourcePoint" />
              <mxPoint x="340" y="615" as="targetPoint" />
            </mxGeometry>
          </mxCell>
        </object>
        <object label="" placeholders="null" id="EFlkV4-VRsSRIpyNFtT4-35">
          <mxCell style="endArrow=classic;html=1;rounded=0;entryX=1;entryY=0.5;entryDx=0;entryDy=0;exitX=0;exitY=0.5;exitDx=0;exitDy=0;" edge="1" source="EFlkV4-VRsSRIpyNFtT4-32" target="EFlkV4-VRsSRIpyNFtT4-31" parent="EFlkV4-VRsSRIpyNFtT4-44">
            <mxGeometry width="50" height="50" relative="1" as="geometry">
              <mxPoint x="700" y="575" as="sourcePoint" />
              <mxPoint x="750" y="525" as="targetPoint" />
            </mxGeometry>
          </mxCell>
        </object>
        <object label="Object9" placeholders="null" id="EFlkV4-VRsSRIpyNFtT4-36">
          <mxCell style="ellipse;whiteSpace=wrap;html=1;aspect=fixed;container=0;" vertex="1" parent="EFlkV4-VRsSRIpyNFtT4-44">
            <mxGeometry x="450" y="615" width="80" height="80" as="geometry" />
          </mxCell>
        </object>
        <object label="" placeholders="null" id="EFlkV4-VRsSRIpyNFtT4-37">
          <mxCell style="endArrow=classic;html=1;rounded=0;exitX=0.5;exitY=1;exitDx=0;exitDy=0;entryX=0.5;entryY=0;entryDx=0;entryDy=0;" edge="1" source="EFlkV4-VRsSRIpyNFtT4-30" target="EFlkV4-VRsSRIpyNFtT4-36" parent="EFlkV4-VRsSRIpyNFtT4-44">
            <mxGeometry width="50" height="50" relative="1" as="geometry">
              <mxPoint x="390" y="535" as="sourcePoint" />
              <mxPoint x="340" y="615" as="targetPoint" />
            </mxGeometry>
          </mxCell>
        </object>
        <object label="Object12" placeholders="null" id="EFlkV4-VRsSRIpyNFtT4-38">
          <mxCell style="ellipse;whiteSpace=wrap;html=1;aspect=fixed;container=0;" vertex="1" parent="EFlkV4-VRsSRIpyNFtT4-44">
            <mxGeometry x="580" y="380" width="80" height="80" as="geometry" />
          </mxCell>
        </object>
        <object label="" placeholders="null" id="EFlkV4-VRsSRIpyNFtT4-39">
          <mxCell style="endArrow=classic;html=1;rounded=0;exitX=0.5;exitY=1;exitDx=0;exitDy=0;entryX=0.5;entryY=0;entryDx=0;entryDy=0;" edge="1" source="EFlkV4-VRsSRIpyNFtT4-38" target="EFlkV4-VRsSRIpyNFtT4-31" parent="EFlkV4-VRsSRIpyNFtT4-44">
            <mxGeometry width="50" height="50" relative="1" as="geometry">
              <mxPoint x="390" y="535" as="sourcePoint" />
              <mxPoint x="340" y="615" as="targetPoint" />
            </mxGeometry>
          </mxCell>
        </object>
        <object label="" placeholders="null" id="EFlkV4-VRsSRIpyNFtT4-40">
          <mxCell style="endArrow=classic;html=1;rounded=0;exitX=1.002;exitY=0.839;exitDx=0;exitDy=0;exitPerimeter=0;entryX=0;entryY=0.5;entryDx=0;entryDy=0;" edge="1" parent="EFlkV4-VRsSRIpyNFtT4-44" source="EFlkV4-VRsSRIpyNFtT4-1" target="EFlkV4-VRsSRIpyNFtT4-29">
            <mxGeometry width="50" height="50" relative="1" as="geometry">
              <mxPoint x="280" y="300" as="sourcePoint" />
              <mxPoint x="330" y="250" as="targetPoint" />
            </mxGeometry>
          </mxCell>
        </object>
      </root>
    </mxGraphModel>
  </diagram>
</mxfile>
